<?xml version="1.0" encoding="utf-8"?>
<!-- Generator: Adobe Illustrator 17.0.2, SVG Export Plug-In . SVG Version: 6.00 Build 0)  -->
<!DOCTYPE svg PUBLIC "-//W3C//DTD SVG 1.1//EN" "http://www.w3.org/Graphics/SVG/1.1/DTD/svg11.dtd">
<svg version="1.1" id="Layer_1" xmlns="http://www.w3.org/2000/svg" xmlns:xlink="http://www.w3.org/1999/xlink" x="0px" y="0px"
	 width="200px" height="200px" viewBox="0 0 200 200" enable-background="new 0 0 200 200" xml:space="preserve">
<path fill="#FFFFFF" stroke="#000000" stroke-miterlimit="10" d="M170.044,157.07c-69.626,0-128.716-41.632-149.955-99.476
	c-7.894,13.169-12.405,28.319-12.405,44.45c0,50.65,44.324,91.71,99,91.71c32.766,0,61.8-14.755,79.819-37.473
	C181.092,156.799,175.602,157.07,170.044,157.07z"/>
<path fill="#FFFFFF" stroke="#000000" stroke-miterlimit="10" d="M59.063,142.476c0-50.65,44.324-91.71,99-91.71
	c11.388,0,22.316,1.804,32.5,5.082c-16.471-29.458-49.656-49.602-87.94-49.602c-54.676,0-99,41.06-99,91.71
	c0,40.1,27.48,76.761,66.187,89.222C62.758,174.565,59.063,157.66,59.063,142.476z"/>
<text transform="matrix(1.0795 0 0 1 97.0905 118.6306)" font-family="'GillSans'" font-size="44.0206">hirp</text>
</svg>
